<svg width="18" height="18" viewBox="0 0 18 18" fill="none" xmlns="http://www.w3.org/2000/svg">
<path fill-rule="evenodd" clip-rule="evenodd" d="M18 7.90333C17.9987 8.04062 17.989 8.17078 17.9119 8.37801C17.8199 8.63834 17.678 8.87665 17.4946 9.08C17.3112 9.28334 17.0903 9.44718 16.844 9.56115C16.5978 9.67577 16.3321 9.73924 16.0619 9.74701C15.7917 9.75478 15.5228 9.70815 15.2708 9.60843C15.0187 9.5087 14.7887 9.35846 14.5936 9.16677C14.3986 8.97509 14.2437 8.74519 14.1368 8.49134C14.0817 8.35988 14.0461 8.21029 14.0241 8.05746C13.8899 5.50986 11.8476 4.16934 9.26476 4.16934C6.68197 4.16934 4.43158 6.33227 4.43158 8.99968C4.43158 11.6671 6.59514 13.8294 9.26411 13.8294C11.6 13.8294 13.5737 12.2638 14.0241 10.0626C14.2081 10.3165 14.3992 10.4554 14.6584 10.6316C14.8126 10.7359 14.9798 10.8382 15.1114 10.8906C15.4412 11.0208 15.793 11.0823 16.1462 11.0719C16.4993 11.0616 16.8473 10.9787 17.1687 10.8291C17.2283 10.8013 17.2963 10.7605 17.3689 10.7112C17.6009 10.5545 17.8153 10.5499 18 10.3401C17.4324 14.6556 13.7377 17.8068 9.26411 17.8068C4.39788 17.8062 0.453064 13.863 0.453064 8.99968C0.453064 4.13631 4.39788 0.193161 9.26476 0.193161C14.1316 0.193161 17.7849 3.231 18 7.90333Z" fill="#C8C8C8" style="fill:#C8C8C8;fill:color(display-p3 0.7843 0.7843 0.7843);fill-opacity:1;"/>
</svg>
